# xmcd
#
# Track frame offsets:
#	183
#	16850
#	31910
#	46080
#	63450
#	79350
#	94560
#	108510
#	122880
#	137080
#
# Disc length: 2039 seconds
#
# Revision: 7
# Processed by: cddbd v1.5.2PL0 Copyright (c) Steve Scherf et al.
# Submitted via: audiograbber 1.83.01
#
DISCID=7c07f50a
DTITLE=Nitty Gritty Dirt Band - The Best Of The Nitty Gritty Dirt Band -  Vol. 
DTITLE=II (More Great Dirt)
DYEAR=1989
DGENRE=Country
TTITLE0=Cadillac Ranch
TTITLE1=I've Been Lookin'
TTITLE2=Oh What A Love
TTITLE3=Workin' Man (Nowhere To Go)
TTITLE4=I Love Only You
TTITLE5=Fishin' In The Dark
TTITLE6=Baby's Got A Hold On Me
TTITLE7=Face On The Cutting Room Floor
TTITLE8=Down That Road Tonight
TTITLE9=Home Again In My Heart
EXTD=
EXTT0=
EXTT1=
EXTT2=
EXTT3=
EXTT4=
EXTT5=
EXTT6=
EXTT7=
EXTT8=
EXTT9=
PLAYORDER=
